<svg id="Layer_1" height="512" viewBox="0 0 512 512" width="512" xmlns="http://www.w3.org/2000/svg" data-name="Layer 1"><path d="m109.088 226.283a72.653 72.653 0 1 0 72.653 72.653 72.735 72.735 0 0 0 -72.653-72.653zm0 133.305a60.653 60.653 0 1 1 60.653-60.652 60.721 60.721 0 0 1 -60.653 60.652z"/><path d="m402.912 226.283a72.653 72.653 0 1 0 72.653 72.653 72.735 72.735 0 0 0 -72.653-72.653zm0 133.305a60.653 60.653 0 1 1 60.653-60.652 60.721 60.721 0 0 1 -60.653 60.652z"/><path d="m442 206.6v-16a48.417 48.417 0 0 0 -48.449-48.6h-99.594a39.281 39.281 0 0 0 -75.915 0h-99.593a48.417 48.417 0 0 0 -48.449 48.605v16a100.321 100.321 0 1 0 131.545 131.395h108.91a100.3 100.3 0 1 0 131.545-131.4zm-186-81.771a27.465 27.465 0 0 1 25.344 17.171h-50.687a27.471 27.471 0 0 1 25.343-17.171zm-146.912 262.5a88.393 88.393 0 1 1 88.393-88.392 88.493 88.493 0 0 1 -88.393 88.391zm96.668-61.329a102 102 0 0 0 3.725-27.091 100.361 100.361 0 0 0 -100.236-100.379 95.3 95.3 0 0 0 -27.245 3.814v-11.739a36.4 36.4 0 0 1 36.449-36.605h275.1a36.4 36.4 0 0 1 36.451 36.605v11.739a95.309 95.309 0 0 0 -27.245-3.8 100.417 100.417 0 0 0 -100.314 100.365 102.07 102.07 0 0 0 3.8 27.091zm197.156 61.328a88.393 88.393 0 1 1 88.393-88.392 88.493 88.493 0 0 1 -88.393 88.392z"/><path d="m292.375 230a23 23 0 1 0 0-46h-72.75a23 23 0 1 0 0 46zm-83.85-23a11.024 11.024 0 0 1 11.1-11h72.75a11 11 0 1 1 0 22h-72.75a11.026 11.026 0 0 1 -11.1-11z"/><path d="m288.784 245h-65.568a6 6 0 0 0 0 12h65.568a6 6 0 0 0 0-12z"/><path d="m278.094 272h-44.188a6 6 0 0 0 0 12h44.188a6 6 0 1 0 0-12z"/></svg>